<?xml version="1.0" encoding="UTF-8" standalone="no"?>
<!-- Created with Inkscape (http://www.inkscape.org/) -->

<svg
   width="13mm"
   height="10mm"
   viewBox="0 0 13 10"
   version="1.1"
   id="svg8016"
   sodipodi:docname="initials.svg"
   inkscape:version="1.1 (c68e22c387, 2021-05-23)"
   xmlns:inkscape="http://www.inkscape.org/namespaces/inkscape"
   xmlns:sodipodi="http://sodipodi.sourceforge.net/DTD/sodipodi-0.dtd"
   xmlns="http://www.w3.org/2000/svg"
   xmlns:svg="http://www.w3.org/2000/svg">
  <sodipodi:namedview
     id="namedview8018"
     pagecolor="#ffffff"
     bordercolor="#666666"
     borderopacity="1.0"
     inkscape:pageshadow="2"
     inkscape:pageopacity="0.0"
     inkscape:pagecheckerboard="0"
     inkscape:document-units="mm"
     showgrid="false"
     inkscape:zoom="2.8578563"
     inkscape:cx="130.86732"
     inkscape:cy="112.84682"
     inkscape:window-width="1920"
     inkscape:window-height="991"
     inkscape:window-x="-9"
     inkscape:window-y="1341"
     inkscape:window-maximized="1"
     inkscape:current-layer="layer1" />
  <defs
     id="defs8013">
    <rect
       x="245.28876"
       y="171.8071"
       width="97.625618"
       height="59.835056"
       id="rect37386" />
  </defs>
  <g
     inkscape:label="Layer 1"
     inkscape:groupmode="layer"
     id="layer1">
    <g
       aria-label="MB"
       id="text9628"
       style="font-weight:bold;font-size:10.5833px;font-family:'Alegreya Sans SC';-inkscape-font-specification:'Alegreya Sans SC Bold';letter-spacing:-1.60337px;word-spacing:-0.00264583px;stroke-width:0.264583">
      <path
         style="color:#000000;-inkscape-font-specification:'Corbel Light';fill:#000000;-inkscape-stroke:none"
         d="m 1.4426373,1.6745994 2.077386,4.8265634 0.6252828,1.5451204 h 0.02067 l 2.666496,-6.3716838 h 0.7079648 v 6.909117 H 7.096021 V 5.390123 q 0,-1.550288 0.072347,-3.2917782 H 7.1270268 Q 6.3570504,3.8191645 6.1761835,4.2532452 L 4.3881846,8.5837164 H 3.9437687 L 2.1092612,4.2532452 Q 1.9749029,3.9328523 1.1480826,2.0983448 h -0.031006 q 0.072347,2.1962414 0.072347,3.2917782 V 8.5837164 H 0.73467246 v -6.909117 z"
         id="path112450" />
      <path
         style="color:#000000;-inkscape-font-specification:'Corbel, Normal';fill:#000000;-inkscape-stroke:none"
         d="m 11.15637,5.0077187 q 0.320393,0.046509 0.573607,0.1705316 0.258381,0.1240231 0.439248,0.3203929 0.186035,0.1912022 0.28422,0.4599188 0.09818,0.263549 0.09818,0.6046123 0,0.2428785 -0.07235,0.5115951 -0.07235,0.2635489 -0.242879,0.5167627 -0.165364,0.248046 -0.439248,0.4599187 -0.268716,0.2118727 -0.671791,0.346231 -0.310058,0.1033526 -0.687295,0.1446936 -0.377236,0.041341 -0.9043343,0.041341 H 7.7457368 V 1.6694318 h 1.7259873 q 0.2377109,0 0.4289131,0.010335 0.1963698,0.00517 0.3565658,0.020671 0.165364,0.015503 0.30489,0.041341 0.139526,0.020671 0.263549,0.051676 0.325561,0.08785 0.58911,0.2428785 0.268716,0.1498611 0.454751,0.3617338 0.186035,0.2118727 0.284219,0.4805893 0.103353,0.2687166 0.103353,0.5839419 0,0.2532137 -0.06201,0.4857569 -0.05684,0.2325432 -0.191202,0.428913 Q 11.874673,4.573638 11.6628,4.7286668 11.456095,4.8836956 11.156372,4.9870482 Z M 9.8696314,4.6614877 q 0.2480456,0 0.4289126,-0.020671 0.180867,-0.025838 0.325561,-0.072347 0.387572,-0.1291907 0.563271,-0.4030749 0.180867,-0.2738842 0.180867,-0.6459533 0,-0.3824044 -0.186034,-0.6252829 Q 10.996174,2.6512809 10.598267,2.5324254 10.401897,2.4755815 10.143516,2.454911 9.8851343,2.4290729 9.5337357,2.4290729 H 8.58806 V 4.6614877 Z M 8.58806,5.4211288 v 2.4029465 h 1.0180224 q 0.3617339,0 0.6717916,-0.031006 0.310058,-0.036173 0.527098,-0.1085202 0.237711,-0.077514 0.403075,-0.1963698 0.165364,-0.124023 0.263549,-0.2687166 0.103352,-0.1498612 0.144693,-0.3152252 0.04651,-0.1653641 0.04651,-0.3358958 0,-0.1963698 -0.04651,-0.3669015 Q 11.569781,6.0257411 11.46126,5.8913828 11.357908,5.7518569 11.182209,5.6485044 11.011677,5.5451518 10.753296,5.488308 10.598267,5.4521346 10.396729,5.4366317 10.20036,5.4211288 9.9058048,5.4211288 Z"
         id="path112452" />
    </g>
    <text
       xml:space="preserve"
       transform="scale(0.26458333)"
       id="text37384"
       style="font-weight:bold;font-size:40px;line-height:1.25;font-family:'Alegreya Sans SC';-inkscape-font-specification:'Alegreya Sans SC Bold';white-space:pre;shape-inside:url(#rect37386)" />
    <text
       xml:space="preserve"
       style="font-weight:bold;font-size:10.5833px;line-height:1.25;font-family:'Alegreya Sans SC';-inkscape-font-specification:'Alegreya Sans SC Bold';stroke-width:0.264583"
       x="78.971634"
       y="52.308289"
       id="text43364"><tspan
         sodipodi:role="line"
         id="tspan43362"
         style="stroke-width:0.264583"
         x="78.971634"
         y="52.308289" /></text>
  </g>
</svg>
