<?xml version="1.0" encoding="UTF-8" standalone="no"?>
<svg
   data-name="Layer 1"
   width="979.44879"
   height="424.10471"
   viewBox="0 0 979.44897 424.10472"
   version="1.1"
   id="svg170"
   sodipodi:docname="working.svg"
   inkscape:version="1.1 (c68e22c387, 2021-05-23)"
   xmlns:inkscape="http://www.inkscape.org/namespaces/inkscape"
   xmlns:sodipodi="http://sodipodi.sourceforge.net/DTD/sodipodi-0.dtd"
   xmlns="http://www.w3.org/2000/svg"
   xmlns:svg="http://www.w3.org/2000/svg">
  <defs
     id="defs174" />
  <sodipodi:namedview
     id="namedview172"
     pagecolor="#ffffff"
     bordercolor="#666666"
     borderopacity="1.0"
     inkscape:pageshadow="2"
     inkscape:pageopacity="0.0"
     inkscape:pagecheckerboard="0"
     showgrid="false"
     inkscape:zoom="0.95572519"
     inkscape:cx="415.91454"
     inkscape:cy="76.904952"
     inkscape:window-width="1920"
     inkscape:window-height="991"
     inkscape:window-x="-9"
     inkscape:window-y="1341"
     inkscape:window-maximized="1"
     inkscape:current-layer="svg170"
     units="px"
     height="68.29021mm" />
  <path
     d="M 828.59361,334.25931 H 151.77484 a 1.7764353,1.7764353 0 0 1 0,-3.55286 h 676.81877 a 1.7764353,1.7764353 0 0 1 0,3.55286 z"
     fill="#3f3d56"
     id="path114"
     style="stroke-width:1.77642" />
  <circle
     cx="503.61234"
     cy="53.583801"
     r="47.963531"
     fill="#2f2e41"
     id="circle116"
     style="stroke-width:1.77642" />
  <polygon
     points="173.405,378.826 172.69,366.588 219.556,358.003 220.612,376.067 "
     fill="#ffb8b8"
     id="polygon118"
     transform="matrix(1.7764272,0,0,1.7764272,149.99841,-311.47198)" />
  <path
     d="m 462.07303,323.85133 2.45101,41.93004 -26.40038,1.5432 -3.9942,-68.3304 v 0 a 26.445425,26.445425 0 0 1 27.94357,24.85716 z"
     fill="#2f2e41"
     id="path120"
     style="stroke-width:1.77642" />
  <polygon
     points="193.789,378.714 186.004,388.185 145.768,362.666 157.257,348.688 "
     fill="#ffb8b8"
     id="polygon122"
     transform="matrix(1.7764272,0,0,1.7764272,149.99841,-311.47198)" />
  <path
     d="m 465.73611,386.17731 26.66982,-32.44775 20.43005,16.79211 -43.46193,52.87777 v 0 a 26.445425,26.445425 0 0 1 -3.63794,-37.22213 z"
     fill="#2f2e41"
     id="path124"
     style="stroke-width:1.77642" />
  <path
     d="m 454.45431,283.04489 -9.45017,44.55075 a 7.105709,7.105709 0 0 0 6.83645,8.57927 l 92.90334,1.49841 a 7.105709,7.105709 0 0 0 7.11216,-8.33963 l -8.1263,-46.04923 a 7.105709,7.105709 0 0 0 -6.99762,-5.87084 h -75.32683 a 7.105709,7.105709 0 0 0 -6.95103,5.63127 z"
     fill="#2f2e41"
     id="path126"
     style="stroke-width:1.77642" />
  <path
     d="m 469.86022,298.73076 c 0,0 -90.59779,-56.84566 -108.36204,-26.6464 -8.88214,15.09965 -4.44108,29.75513 2.22051,40.63575 a 61.518616,61.518616 0 0 0 25.585,22.90013 l 73.45083,35.94405 26.64641,-28.42283 -17.76429,-15.98787 z"
     fill="#2f2e41"
     id="path128"
     style="stroke-width:1.77642" />
  <path
     d="m 516.04734,289.84862 c 0,0 117.24419,-33.7521 94.15063,30.19928 -23.09356,63.95138 -110.13846,39.08138 -110.13846,39.08138 l -8.88215,-26.64641 30.19926,-21.31713 z"
     fill="#2f2e41"
     id="path130"
     style="stroke-width:1.77642" />
  <circle
     cx="504.21387"
     cy="64.536072"
     r="43.630878"
     fill="#ffb8b8"
     id="circle132"
     style="stroke-width:1.77642" />
  <path
     d="m 506.49989,296.89885 a 234.47748,234.47748 0 0 1 -53.74948,-7.08143 l -0.51958,-0.1422 -24.34694,-111.99473 a 41.256989,41.256989 0 0 1 26.52715,-47.86289 142.93079,142.93079 0 0 1 91.12994,-1.81981 h 4.1e-4 a 41.691966,41.691966 0 0 1 27.77445,49.32188 l -27.19416,112.26187 -0.38296,0.18205 c -11.3013,5.35355 -25.43339,7.13522 -39.23883,7.13522 z"
     fill="#cccccc"
     id="path134"
     style="stroke-width:1.77642" />
  <path
     d="m 473.79557,305.59892 a 17.863275,17.863275 0 0 1 25.71445,-9.43678 l 47.93956,-41.61196 4.33738,32.70135 -46.18919,34.50194 a 17.960157,17.960157 0 0 1 -31.8022,-16.15455 z"
     fill="#ffb8b8"
     id="path136"
     style="stroke-width:1.77642" />
  <path
     d="m 519.51692,314.67525 a 8.053486,8.053486 0 0 1 -2.30293,-0.33827 7.9097732,7.9097732 0 0 1 -5.2625,-5.0032 l -5.78638,-16.39373 a 7.9441825,7.9441825 0 0 1 2.3133,-8.70867 l 65.3171,-39.21326 -25.7477,-114.86579 0.65486,-0.15792 c 0.2663,-0.0657 26.64686,-6.07007 37.45719,22.75702 7.57023,20.18951 35.58451,64.08841 33.60815,93.75336 a 26.441424,26.441424 0 0 1 -21.88914,24.38599 l -73.52309,42.12423 a 7.9157598,7.9157598 0 0 1 -4.83886,1.66021 z"
     fill="#cccccc"
     id="path138"
     style="stroke-width:1.77642" />
  <path
     d="m 526.84276,301.70216 a 17.863307,17.863307 0 0 0 -25.71445,-9.43675 l -47.93957,-41.61195 -4.33736,32.70133 46.1892,34.50195 a 17.960157,17.960157 0 0 0 31.80218,-16.15458 z"
     fill="#ffb8b8"
     id="path140"
     style="stroke-width:1.77642" />
  <path
     d="m 485.93135,314.67525 a 7.9157598,7.9157598 0 0 1 -4.83878,-1.66019 L 402.2402,274.4437 a 26.441424,26.441424 0 0 1 -21.88913,-24.38601 c -1.97639,-29.66492 31.36719,-77.1167 38.9374,-97.30619 10.80954,-28.82708 37.19046,-22.82469 37.45718,-22.75704 l 0.65488,0.15792 -31.07708,118.41864 70.64637,35.66039 a 7.9441825,7.9441825 0 0 1 2.31336,8.70867 l -5.78643,16.39381 a 7.9097732,7.9097732 0 0 1 -5.26245,5.00312 8.0557423,8.0557423 0 0 1 -2.30295,0.33828 z"
     fill="#cccccc"
     id="path142"
     style="stroke-width:1.77642" />
  <path
     d="M 579.99877,332.48275 H 421.89672 a 12.449522,12.449522 0 0 1 -12.43498,-12.43498 v -87.04496 a 12.449522,12.449522 0 0 1 12.43498,-12.43499 h 158.10205 a 12.449505,12.449505 0 0 1 12.43497,12.43499 v 87.04496 a 12.449522,12.449522 0 0 1 -12.43497,12.43498 z"
     fill="#20b549"
     id="path144"
     style="stroke-width:1.77642" />
  <circle
     cx="500.94769"
     cy="276.52542"
     r="10.658564"
     fill="#ffffff"
     id="circle146"
     style="stroke-width:1.77642" />
  <path
     d="m 460.14593,62.76028 c -2.58586,-6.559104 1.65679,-14.375598 7.95071,-17.552879 6.29392,-3.177283 13.88894,-2.573031 20.6212,-0.478997 5.65763,1.759782 10.96012,4.487042 16.47971,6.641086 a 36.88133,36.88133 0 0 0 17.32524,3.085493 c 5.8876,-0.664935 11.74738,-3.966371 14.15649,-9.379536 2.49719,-5.611004 0.79875,-12.458366 -3.04687,-17.246977 a 33.395445,33.395445 0 0 0 -15.29806,-9.832168 c -12.98124,-4.573286 -27.97569,-4.706983 -40.02707,1.940747 -12.05136,6.647729 -20.24143,20.802318 -17.75039,34.33834"
     fill="#2f2e41"
     id="path148"
     style="stroke-width:1.77642" />
  <path
     d="m 208.02091,313.5079 a 216.79822,216.79822 0 0 1 17.94286,-68.42305 q 4.04955,-9.04643 8.91434,-17.69454 a 1.3213066,1.3213066 0 0 0 -2.28011,-1.33278 219.79424,219.79424 0 0 0 -24.4575,67.47279 q -1.83621,9.9188 -2.76017,19.97758 c -0.15645,1.6914 2.48509,1.68075 2.64061,0 z"
     fill="#e6e6e6"
     id="path150"
     style="stroke-width:1.77642" />
  <circle
     cx="241.27376"
     cy="214.90125"
     r="16.723999"
     fill="#20b549"
     id="circle152"
     style="stroke-width:1.77642" />
  <path
     d="m 209.73167,313.95207 a 140.64703,140.64703 0 0 1 11.64034,-44.38919 q 2.62714,-5.86884 5.78315,-11.47928 a 0.85719721,0.85719721 0 0 0 -1.47923,-0.86464 142.59117,142.59117 0 0 0 -15.86672,43.77274 q -1.19123,6.43481 -1.79062,12.96039 c -0.10168,1.09732 1.6122,1.09037 1.71309,0 z"
     fill="#e6e6e6"
     id="path154"
     style="stroke-width:1.77642" />
  <circle
     cx="231.30432"
     cy="249.98137"
     r="10.849637"
     fill="#20b549"
     id="circle156"
     style="stroke-width:1.77642" />
  <path
     d="m 207.56948,312.92789 a 140.64684,140.64684 0 0 1 -18.12383,-42.15952 q -1.53826,-6.24331 -2.50055,-12.60818 a 0.85717941,0.85717941 0 0 0 -1.69813,0.22807 142.59043,142.59043 0 0 0 14.41228,44.27293 q 3.01848,5.80638 6.55948,11.32035 c 0.59483,0.92765 1.94182,-0.13178 1.35075,-1.05365 z"
     fill="#e6e6e6"
     id="path158"
     style="stroke-width:1.77642" />
  <circle
     cx="185.23332"
     cy="249.21979"
     r="10.849637"
     fill="#20b549"
     id="circle160"
     style="stroke-width:1.77642" />
  <path
     d="m 174.26186,322.5272 v -21.31712 a 8.0029467,8.0029467 0 0 1 7.99393,-7.99392 h 49.73997 a 8.0029467,8.0029467 0 0 1 7.99392,7.99392 v 21.31712 a 8.0029467,8.0029467 0 0 1 -7.99392,7.99392 h -49.73997 a 8.0029467,8.0029467 0 0 1 -7.99393,-7.99392 z"
     fill="#f2f2f2"
     style="isolation:isolate;stroke-width:1.77642"
     id="path162" />
  <path
     d="m 708.52285,347.40595 c 0,11.68368 -9.47151,16.99433 -21.15519,16.99433 -11.68369,0 -21.15523,-5.31065 -21.15523,-16.99433 0,-11.68368 4.70117,-25.31609 21.15523,-20.61493 16.45404,-7.05174 21.15519,8.93125 21.15519,20.61493 z"
     fill="#ff6584"
     id="path164"
     style="stroke-width:1.77642" />
  <path
     d="m 686.33717,332.26415 a 3.3817134,3.3817134 0 0 1 -3.3594,-2.94739 c -0.70044,-5.82892 -4.56124,-17.24557 -6.18844,-21.88268 l -4.6e-4,-9.9e-4 a 3.0252555,3.0252555 0 0 1 0.39121,-2.78263 3.1736229,3.1736229 0 0 1 4.73121,-0.34175 3.0283998,3.0283998 0 0 1 0.83183,2.26739 c -0.31875,5.95208 4.01995,15.56975 6.63474,20.77414 a 3.3893343,3.3893343 0 0 1 -2.68201,4.89558 3.132534,3.132534 0 0 1 -0.35868,0.0191 z"
     fill="#3f3d56"
     id="path166"
     style="stroke-width:1.77642" />
  <path
     d="m 701.99118,319.13389 c 7.34363,-6.01042 1.58205,-18.31077 -7.60914,-15.94946 a 7.4220729,7.4220729 0 0 0 -3.31073,1.76604 c -5.63804,5.32593 -6.5118,18.95279 -6.5118,18.95279 0,0 9.95607,1.34899 17.43167,-4.76937 z"
     fill="#3f3d56"
     id="path168"
     style="stroke-width:1.77642" />
</svg>
